<svg width="24" height="21" viewBox="0 0 24 21" fill="none" xmlns="http://www.w3.org/2000/svg">
<path fill-rule="evenodd" clip-rule="evenodd" d="M6.56571 2.81583C7.05804 1.97117 7.30421 1.55 7.64721 1.24317C7.95058 0.97157 8.30746 0.766503 8.69487 0.641167C9.13237 0.5 9.62004 0.5 10.5965 0.5H13.4024C14.38 0.5 14.8677 0.5 15.3052 0.641167C15.6926 0.766503 16.0495 0.97157 16.3529 1.24317C16.6959 1.55 16.942 1.97117 17.4344 2.81583L18.125 4H19C20.6334 4 21.45 4 22.0742 4.31733C22.6229 4.59721 23.0688 5.04359 23.3482 5.5925C23.6667 6.21667 23.6667 7.03333 23.6667 8.66667V15.6667C23.6667 17.3 23.6667 18.1167 23.3482 18.7408C23.0686 19.2893 22.6227 19.7353 22.0742 20.0148C21.45 20.3333 20.6334 20.3333 19 20.3333H5.00004C3.36671 20.3333 2.55004 20.3333 1.92587 20.0148C1.37696 19.7355 0.930585 19.2895 0.650707 18.7408C0.333374 18.1167 0.333374 17.3 0.333374 15.6667V8.66667C0.333374 7.03333 0.333374 6.21667 0.650707 5.5925C0.930387 5.04341 1.37679 4.59701 1.92587 4.31733C2.55004 4 3.36671 4 5.00004 4H5.87504L6.56571 2.81583ZM12 16.8917C13.4698 16.8917 14.8793 16.3078 15.9186 15.2685C16.9579 14.2293 17.5417 12.8197 17.5417 11.35C17.5417 9.88026 16.9579 8.47071 15.9186 7.43145C14.8793 6.39219 13.4698 5.80833 12 5.80833C10.5303 5.80833 9.12075 6.39219 8.08149 7.43145C7.04223 8.47071 6.45837 9.88026 6.45837 11.35C6.45837 12.8197 7.04223 14.2293 8.08149 15.2685C9.12075 16.3078 10.5303 16.8917 12 16.8917ZM15.15 11.35C15.15 12.1854 14.8182 12.9866 14.2274 13.5774C13.6367 14.1681 12.8355 14.5 12 14.5C11.1646 14.5 10.3634 14.1681 9.77265 13.5774C9.18191 12.9866 8.85004 12.1854 8.85004 11.35C8.85004 10.5146 9.18191 9.71335 9.77265 9.12261C10.3634 8.53187 11.1646 8.2 12 8.2C12.8355 8.2 13.6367 8.53187 14.2274 9.12261C14.8182 9.71335 15.15 10.5146 15.15 11.35Z" fill="#E94848"/>
</svg>
