<svg width="7" height="7" viewBox="0 0 7 7" fill="none" xmlns="http://www.w3.org/2000/svg">
<path fill-rule="evenodd" clip-rule="evenodd" d="M6.80323 0.844889C6.88671 0.758446 6.93291 0.64267 6.93187 0.522496C6.93082 0.402323 6.88262 0.287367 6.79764 0.202389C6.71266 0.11741 6.59771 0.0692074 6.47753 0.0681631C6.35736 0.0671188 6.24158 0.113316 6.15514 0.196806L3.50002 2.85193L0.844892 0.196806C0.758449 0.113316 0.642673 0.0671188 0.5225 0.0681631C0.402326 0.0692074 0.28737 0.11741 0.202392 0.202389C0.117413 0.287367 0.0692104 0.402323 0.0681662 0.522496C0.0671219 0.64267 0.11332 0.758446 0.196809 0.844889L2.85193 3.50001L0.196809 6.15514C0.153033 6.19742 0.118116 6.24799 0.0940954 6.30391C0.0700746 6.35983 0.0574309 6.41997 0.0569021 6.48083C0.0563732 6.54169 0.0679698 6.60204 0.0910152 6.65837C0.114061 6.71469 0.148093 6.76587 0.191127 6.8089C0.234162 6.85194 0.285335 6.88597 0.341663 6.90902C0.39799 6.93206 0.458344 6.94366 0.519201 6.94313C0.580058 6.9426 0.6402 6.92996 0.696119 6.90593C0.752037 6.88191 0.802612 6.847 0.844892 6.80322L3.50002 4.1481L6.15514 6.80322C6.24158 6.88671 6.35736 6.93291 6.47753 6.93186C6.59771 6.93082 6.71266 6.88262 6.79764 6.79764C6.88262 6.71266 6.93082 6.5977 6.93187 6.47753C6.93291 6.35736 6.88671 6.24158 6.80323 6.15514L4.1481 3.50001L6.80323 0.844889Z" fill="white"/>
</svg>
