<svg width="17" height="4" viewBox="0 0 17 4" fill="none" xmlns="http://www.w3.org/2000/svg">
<path d="M2.85438 0.0608978C3.11218 0.0608978 3.36746 0.111676 3.60564 0.210333C3.84382 0.30899 4.06023 0.453594 4.24253 0.635889C4.42482 0.818183 4.56943 1.0346 4.66808 1.27278C4.76674 1.51096 4.81752 1.76624 4.81752 2.02404C4.81752 2.28184 4.76674 2.53712 4.66808 2.7753C4.56943 3.01348 4.42482 3.22989 4.24253 3.41219C4.06023 3.59448 3.84382 3.73909 3.60564 3.83774C3.36746 3.9364 3.11218 3.98718 2.85438 3.98718C2.33372 3.98718 1.83439 3.78035 1.46623 3.41219C1.09807 3.04403 0.891235 2.5447 0.891235 2.02404C0.891235 1.50338 1.09807 1.00405 1.46623 0.635889C1.83439 0.267728 2.33372 0.0608978 2.85438 0.0608978ZM8.7438 0.0608978C9.0016 0.0608978 9.25688 0.111676 9.49506 0.210333C9.73324 0.30899 9.94966 0.453594 10.1319 0.635889C10.3142 0.818183 10.4588 1.0346 10.5575 1.27278C10.6562 1.51096 10.7069 1.76624 10.7069 2.02404C10.7069 2.28184 10.6562 2.53712 10.5575 2.7753C10.4588 3.01348 10.3142 3.22989 10.1319 3.41219C9.94966 3.59448 9.73324 3.73909 9.49506 3.83774C9.25688 3.9364 9.0016 3.98718 8.7438 3.98718C8.22314 3.98718 7.72381 3.78035 7.35565 3.41219C6.98749 3.04403 6.78066 2.5447 6.78066 2.02404C6.78066 1.50338 6.98749 1.00405 7.35565 0.635889C7.72381 0.267728 8.22314 0.0608978 8.7438 0.0608978ZM14.6332 0.0608978C14.891 0.0608978 15.1463 0.111676 15.3845 0.210333C15.6227 0.30899 15.8391 0.453594 16.0214 0.635889C16.2037 0.818183 16.3483 1.0346 16.4469 1.27278C16.5456 1.51096 16.5964 1.76624 16.5964 2.02404C16.5964 2.28184 16.5456 2.53712 16.4469 2.7753C16.3483 3.01348 16.2037 3.22989 16.0214 3.41219C15.8391 3.59448 15.6227 3.73909 15.3845 3.83774C15.1463 3.9364 14.891 3.98718 14.6332 3.98718C14.1126 3.98718 13.6132 3.78035 13.2451 3.41219C12.8769 3.04403 12.6701 2.5447 12.6701 2.02404C12.6701 1.50338 12.8769 1.00405 13.2451 0.635889C13.6132 0.267728 14.1126 0.0608978 14.6332 0.0608978Z" fill="#E94848"/>
</svg>
