<svg width="10" height="9" viewBox="0 0 10 9" fill="currentColor" xmlns="http://www.w3.org/2000/svg">
<path d="M9.8885 3.37287C9.83963 3.22825 9.70968 3.12286 9.55326 3.10103L6.90047 2.73031L5.71407 0.418007C5.64411 0.281671 5.49973 0.195343 5.34168 0.195343C5.1836 0.195343 5.03923 0.281671 4.9693 0.418007L3.78298 2.73028L1.1301 3.101C0.973684 3.12286 0.843704 3.22825 0.794869 3.37284C0.746033 3.51746 0.786757 3.67619 0.89996 3.7823L2.81958 5.58188L2.36625 8.12343C2.33953 8.27329 2.40357 8.42472 2.53144 8.51409C2.60378 8.56465 2.68947 8.59038 2.77557 8.59038C2.84165 8.59038 2.90801 8.57522 2.96878 8.5445L5.34165 7.34466L7.71451 8.5445C7.77563 8.57541 7.84258 8.59014 7.90888 8.59038C8.13797 8.59006 8.32357 8.41136 8.32357 8.19095C8.32357 8.16028 8.31997 8.13038 8.31316 8.1017L7.86375 5.58191L9.78338 3.7823C9.89661 3.67619 9.93733 3.51746 9.8885 3.37287Z" fill="currentColor"/>
</svg>
